<svg width="286" height="95" viewBox="0 0 286 95" fill="none" xmlns="http://www.w3.org/2000/svg">
<g filter="url(#filter0_d_1_4)">
<ellipse cx="143" cy="43.5" rx="120" ry="43.5" fill="#D8A00F"/>
</g>
<g filter="url(#filter1_d_1_4)">
<path d="M18.6348 37.7109C17.7233 37.7109 16.877 37.9307 16.0957 38.3701C15.3307 38.7933 14.6553 39.3874 14.0693 40.1523C13.4997 40.901 13.0521 41.7881 12.7266 42.8135C12.401 43.8389 12.2383 44.9375 12.2383 46.1094C12.2383 47.3138 12.5068 48.4287 13.0439 49.4541C13.5973 50.4632 14.3542 51.3503 15.3145 52.1152C16.291 52.8639 17.4303 53.4499 18.7324 53.873C20.0508 54.2962 21.4831 54.5078 23.0293 54.5078C24.1523 54.5078 25.2103 54.4102 26.2031 54.2148C27.2122 54.0033 28.0911 53.7266 28.8398 53.3848C29.5885 53.043 30.1826 52.6442 30.6221 52.1885C31.0615 51.7165 31.2812 51.2201 31.2812 50.6992C31.2812 50.2923 31.208 49.9587 31.0615 49.6982C30.915 49.4215 30.7441 49.1774 30.5488 48.9658C30.3698 48.738 30.207 48.5182 30.0605 48.3066C29.9141 48.0788 29.8408 47.7939 29.8408 47.4521C29.8408 47.1266 29.9222 46.8174 30.085 46.5244C30.2477 46.2314 30.4674 45.971 30.7441 45.7432C31.0371 45.5153 31.3626 45.3363 31.7207 45.2061C32.0951 45.0758 32.4775 45.0107 32.8682 45.0107C33.3402 45.0107 33.7796 45.1328 34.1865 45.377C34.6097 45.6211 34.9678 45.9629 35.2607 46.4023C35.57 46.8255 35.806 47.3301 35.9688 47.916C36.1478 48.4857 36.2373 49.096 36.2373 49.7471C36.2373 51.0654 35.8874 52.2943 35.1875 53.4336C34.4876 54.5566 33.5192 55.5251 32.2822 56.3389C31.0452 57.1527 29.5804 57.7956 27.8877 58.2676C26.195 58.7233 24.3558 58.9512 22.3701 58.9512C20.1729 58.9512 18.1465 58.6582 16.291 58.0723C14.4355 57.4701 12.8324 56.64 11.4814 55.582C10.1468 54.5241 9.10514 53.2708 8.35645 51.8223C7.60775 50.3737 7.2334 48.7868 7.2334 47.0615C7.2334 45.1735 7.55892 43.3913 8.20996 41.7148C8.87728 40.0384 9.7806 38.5736 10.9199 37.3203C12.0592 36.0671 13.3857 35.0742 14.8994 34.3418C16.4294 33.6094 18.057 33.2432 19.7822 33.2432C20.5472 33.2432 21.2471 33.3327 21.8818 33.5117C22.5329 33.6745 23.0944 33.9105 23.5664 34.2197C24.0384 34.529 24.4046 34.8952 24.665 35.3184C24.9417 35.7253 25.0801 36.1729 25.0801 36.6611C25.0801 37.0518 24.9906 37.4261 24.8115 37.7842C24.6488 38.126 24.429 38.4352 24.1523 38.7119C23.8757 38.9723 23.5501 39.1839 23.1758 39.3467C22.8177 39.5094 22.4352 39.5908 22.0283 39.5908C21.6051 39.5908 21.2633 39.4932 21.0029 39.2979C20.7588 39.1025 20.5309 38.891 20.3193 38.6631C20.1077 38.4189 19.8799 38.1992 19.6357 38.0039C19.3916 37.8086 19.0579 37.7109 18.6348 37.7109ZM34.1377 31.1924C34.1377 30.346 34.3818 29.7438 34.8701 29.3857C35.3584 29.0277 36.1641 28.8486 37.2871 28.8486C37.6777 28.8486 38.0195 28.8893 38.3125 28.9707C38.6055 29.0521 38.8496 29.1904 39.0449 29.3857C39.2402 29.5648 39.3949 29.8171 39.5088 30.1426C39.639 30.4518 39.7448 30.8506 39.8262 31.3389C40.0378 32.7874 40.2493 34.3092 40.4609 35.9043C40.6888 37.4831 40.9004 39.0618 41.0957 40.6406C41.3073 42.2031 41.5026 43.7331 41.6816 45.2305C41.8607 46.7116 42.0153 48.0951 42.1455 49.3809C42.292 50.6504 42.3978 51.7816 42.4629 52.7744C42.5443 53.751 42.585 54.5241 42.585 55.0938C42.585 55.6797 42.528 56.1761 42.4141 56.583C42.3164 56.9899 42.1374 57.3154 41.877 57.5596C41.6328 57.8037 41.3073 57.9827 40.9004 58.0967C40.5098 58.1943 40.0215 58.2432 39.4355 58.2432C38.8659 58.2432 38.4102 58.0967 38.0684 57.8037C37.7428 57.5107 37.5801 57.0632 37.5801 56.4609C37.5801 55.8424 37.5312 55.0205 37.4336 53.9951C37.3359 52.9535 37.2057 51.7979 37.043 50.5283C36.8802 49.2588 36.693 47.9079 36.4814 46.4756C36.2861 45.0433 36.0745 43.6273 35.8467 42.2275C35.6351 40.8278 35.4235 39.485 35.2119 38.1992C35.0166 36.8971 34.8376 35.7497 34.6748 34.7568C34.512 33.7477 34.3818 32.9258 34.2842 32.291C34.1865 31.64 34.1377 31.2738 34.1377 31.1924ZM50.1533 34.0977C49.6813 34.0977 49.2337 34.0326 48.8105 33.9023C48.4036 33.7559 48.0456 33.5605 47.7363 33.3164C47.4434 33.056 47.2074 32.7549 47.0283 32.4131C46.8493 32.0713 46.7598 31.6969 46.7598 31.29C46.7598 30.6064 47.0283 30.0531 47.5654 29.6299C48.1188 29.2067 48.8512 28.9951 49.7627 28.9951C50.1859 28.9951 50.5928 29.0765 50.9834 29.2393C51.374 29.3857 51.7158 29.5892 52.0088 29.8496C52.318 30.11 52.5622 30.4193 52.7412 30.7773C52.9202 31.1191 53.0098 31.4772 53.0098 31.8516C53.0098 32.5514 52.7493 33.1048 52.2285 33.5117C51.724 33.9023 51.0322 34.0977 50.1533 34.0977ZM46.8086 41.5439C46.8086 40.9743 47.0527 40.5104 47.541 40.1523C48.0456 39.778 48.7048 39.5908 49.5186 39.5908C50.9834 39.5908 51.7646 40.0954 51.8623 41.1045C51.9274 41.8044 51.9925 42.5938 52.0576 43.4727C52.139 44.3516 52.2122 45.2874 52.2773 46.2803C52.3587 47.2568 52.4238 48.2741 52.4727 49.332C52.5378 50.3737 52.5947 51.4072 52.6436 52.4326C52.6924 53.4417 52.7331 54.4183 52.7656 55.3623C52.7982 56.3063 52.8145 57.1689 52.8145 57.9502C52.8145 58.764 52.5215 59.3743 51.9355 59.7812C51.3659 60.1882 50.5277 60.3916 49.4209 60.3916C48.9163 60.3916 48.5176 60.2695 48.2246 60.0254C47.9479 59.7975 47.8096 59.4557 47.8096 59C47.8096 56.7539 47.7526 54.6543 47.6387 52.7012C47.541 50.7318 47.4271 48.9821 47.2969 47.4521C47.1829 45.9222 47.069 44.6527 46.9551 43.6436C46.8574 42.6182 46.8086 41.9183 46.8086 41.5439ZM78.1074 53.6533C78.5794 53.2464 79.0433 53.043 79.499 53.043C79.7594 53.043 79.9954 53.1081 80.207 53.2383C80.4186 53.3685 80.6546 53.5719 80.915 53.8486C81.1592 54.223 81.3301 54.5322 81.4277 54.7764C81.5417 55.0042 81.5986 55.2321 81.5986 55.46C81.5986 55.9482 81.3545 56.4121 80.8662 56.8516C80.085 57.5026 79.2386 58.0885 78.3271 58.6094C77.4157 59.1139 76.4635 59.5452 75.4707 59.9033C74.4779 60.2614 73.4525 60.5299 72.3945 60.709C71.3366 60.9043 70.2868 61.002 69.2451 61.002C67.9268 61.002 66.6898 60.8311 65.5342 60.4893C64.3786 60.1637 63.3451 59.6917 62.4336 59.0732C61.5384 58.4548 60.7816 57.7142 60.1631 56.8516C59.5446 55.9727 59.1051 54.988 58.8447 53.8975C58.6982 53.4417 58.5599 53.1488 58.4297 53.0186C58.3158 52.8721 58.1204 52.7988 57.8438 52.7988C57.2415 52.7988 56.7777 52.6523 56.4521 52.3594C56.1266 52.0664 55.9639 51.6432 55.9639 51.0898C55.9639 50.862 55.9801 50.7155 56.0127 50.6504L56.0615 50.1621C56.1429 49.5762 56.2975 49.153 56.5254 48.8926C56.7695 48.6322 57.1439 48.502 57.6484 48.502H58.0146C58.6982 48.502 59.1784 48.1846 59.4551 47.5498C59.9596 46.4268 60.6025 45.4014 61.3838 44.4736C62.165 43.5459 63.0439 42.7565 64.0205 42.1055C64.9971 41.4382 66.0387 40.9255 67.1455 40.5674C68.2686 40.193 69.4079 40.0059 70.5635 40.0059C71.7679 40.0059 72.891 40.1849 73.9326 40.543C74.9906 40.8848 75.9102 41.3649 76.6914 41.9834C77.4727 42.6019 78.083 43.3262 78.5225 44.1562C78.9782 44.9863 79.2061 45.8815 79.2061 46.8418C79.2061 47.5091 79.0758 48.1195 78.8154 48.6729C78.555 49.2262 78.1807 49.7145 77.6924 50.1377C77.2041 50.5446 76.61 50.8783 75.9102 51.1387C75.2266 51.3991 74.4453 51.57 73.5664 51.6514L65.0947 52.5059C64.7692 52.5059 64.5007 52.5872 64.2891 52.75C64.0938 52.9128 63.9961 53.1325 63.9961 53.4092C63.9961 53.8324 64.1507 54.2393 64.46 54.6299C64.7855 55.0205 65.2087 55.3704 65.7295 55.6797C66.2666 55.9727 66.877 56.2087 67.5605 56.3877C68.2604 56.5667 68.9766 56.6562 69.709 56.6562C70.4089 56.6562 71.125 56.5911 71.8574 56.4609C72.6061 56.3145 73.3385 56.111 74.0547 55.8506C74.7871 55.5902 75.4951 55.2809 76.1787 54.9229C76.8623 54.5485 77.5052 54.1253 78.1074 53.6533ZM72.6631 47.3545C72.9072 47.3057 73.1188 47.1917 73.2979 47.0127C73.4769 46.8174 73.5664 46.5814 73.5664 46.3047C73.5664 46.0605 73.4769 45.8327 73.2979 45.6211C73.1188 45.4095 72.8747 45.2223 72.5654 45.0596C72.2562 44.8805 71.8981 44.7422 71.4912 44.6445C71.0843 44.5469 70.653 44.498 70.1973 44.498C69.5299 44.498 68.8464 44.5957 68.1465 44.791C67.4466 44.9863 66.8118 45.2467 66.2422 45.5723C65.6725 45.8815 65.2087 46.2314 64.8506 46.6221C64.4925 46.9964 64.3135 47.3708 64.3135 47.7451C64.3135 48.1195 64.5413 48.3066 64.9971 48.3066C65.2738 48.3066 65.7214 48.2741 66.3398 48.209C66.9583 48.1439 67.6419 48.0706 68.3906 47.9893C69.1393 47.8916 69.8962 47.7858 70.6611 47.6719C71.4261 47.5579 72.0934 47.4521 72.6631 47.3545ZM83.5762 39.2979C83.5762 39.0537 83.682 38.8177 83.8936 38.5898C84.1051 38.3457 84.3818 38.1341 84.7236 37.9551C85.0654 37.7598 85.4479 37.6051 85.8711 37.4912C86.3105 37.361 86.75 37.2959 87.1895 37.2959C87.4336 37.2959 87.637 37.361 87.7998 37.4912C87.9788 37.6214 88.1335 37.8737 88.2637 38.248C88.3939 38.6061 88.5078 39.1188 88.6055 39.7861C88.7194 40.4372 88.8252 41.2917 88.9229 42.3496C88.988 42.6751 89.0449 42.9274 89.0938 43.1064C89.1589 43.2692 89.2402 43.3506 89.3379 43.3506C89.4844 43.3506 89.6309 43.0983 89.7773 42.5938C90.9655 39.1595 92.6826 37.4424 94.9287 37.4424C95.9704 37.4424 96.9144 37.7679 97.7607 38.4189C98.6234 39.07 99.4209 40.1361 100.153 41.6172C100.902 43.082 101.61 45.0189 102.277 47.4277C102.945 49.8203 103.612 52.7744 104.279 56.29C104.312 56.4691 104.336 56.6318 104.353 56.7783C104.369 56.9248 104.377 57.0632 104.377 57.1934C104.377 57.5677 104.287 57.8932 104.108 58.1699C103.946 58.4303 103.726 58.6501 103.449 58.8291C103.173 58.9919 102.863 59.1139 102.521 59.1953C102.18 59.293 101.838 59.3418 101.496 59.3418C100.812 59.3418 100.316 59.2686 100.007 59.1221C99.7139 58.9756 99.5267 58.6989 99.4453 58.292C98.9733 55.818 98.5094 53.6208 98.0537 51.7002C97.6143 49.7796 97.1748 48.1683 96.7354 46.8662C96.3122 45.5479 95.889 44.5469 95.4658 43.8633C95.0426 43.1797 94.6195 42.8379 94.1963 42.8379C93.7731 42.8379 93.3743 43.1064 93 43.6436C92.6419 44.1644 92.292 44.9863 91.9502 46.1094C91.6084 47.2324 91.2747 48.6566 90.9492 50.3818C90.64 52.1071 90.3389 54.166 90.0459 56.5586C89.9645 57.2096 89.639 57.7305 89.0693 58.1211C88.4997 58.5117 87.7754 58.707 86.8965 58.707C86.3105 58.707 85.863 58.585 85.5537 58.3408C85.2445 58.0967 85.0736 57.763 85.041 57.3398C84.8945 53.9544 84.7318 51.1712 84.5527 48.9902C84.39 46.793 84.2354 45.0352 84.0889 43.7168C83.9424 42.3822 83.8203 41.3893 83.7227 40.7383C83.625 40.0872 83.5762 39.6071 83.5762 39.2979ZM109.211 30.8018C109.211 29.9391 109.455 29.3369 109.943 28.9951C110.432 28.637 111.237 28.458 112.36 28.458C112.767 28.458 113.109 28.4987 113.386 28.5801C113.679 28.6452 113.923 28.7754 114.118 28.9707C114.33 29.166 114.493 29.4264 114.606 29.752C114.737 30.0612 114.842 30.46 114.924 30.9482C115.119 32.4619 115.331 34.0244 115.559 35.6357C115.803 37.2471 116.055 38.8665 116.315 40.4941C116.413 41.2266 116.796 41.5928 117.463 41.5928C117.642 41.5928 117.935 41.5765 118.342 41.5439C118.765 41.4951 119.261 41.4463 119.831 41.3975C120.401 41.3324 121.011 41.2673 121.662 41.2021C122.329 41.137 122.989 41.0801 123.64 41.0312C124.307 40.9661 124.934 40.9173 125.52 40.8848C126.122 40.8359 126.651 40.8115 127.106 40.8115C127.465 40.8115 127.749 40.8848 127.961 41.0312C128.173 41.1615 128.335 41.3405 128.449 41.5684C128.579 41.7799 128.661 42.0241 128.693 42.3008C128.742 42.5612 128.767 42.8298 128.767 43.1064C128.767 43.3506 128.718 43.6029 128.62 43.8633C128.539 44.1237 128.417 44.3597 128.254 44.5713C128.107 44.7666 127.92 44.9294 127.692 45.0596C127.465 45.1898 127.204 45.2549 126.911 45.2549C125.495 45.2549 124.063 45.3037 122.614 45.4014C121.182 45.4827 119.75 45.5967 118.317 45.7432C117.585 45.8408 117.219 46.207 117.219 46.8418C117.219 46.8906 117.227 46.9557 117.243 47.0371C117.259 47.1022 117.268 47.1592 117.268 47.208C117.463 48.624 117.642 49.9505 117.805 51.1875C117.984 52.4245 118.13 53.5312 118.244 54.5078C118.374 55.4681 118.472 56.2738 118.537 56.9248C118.618 57.5596 118.659 57.9827 118.659 58.1943C118.659 58.7803 118.602 59.2686 118.488 59.6592C118.374 60.0661 118.187 60.3916 117.927 60.6357C117.666 60.8962 117.316 61.0752 116.877 61.1729C116.454 61.2868 115.917 61.3438 115.266 61.3438C114.647 61.3438 114.191 61.1973 113.898 60.9043C113.605 60.6113 113.443 60.1637 113.41 59.5615C113.312 57.641 113.158 55.7122 112.946 53.7754C112.735 51.8223 112.491 49.8773 112.214 47.9404C112.067 47.2406 111.701 46.8906 111.115 46.8906C111.066 46.8906 111.009 46.8988 110.944 46.915C110.879 46.9313 110.822 46.9395 110.773 46.9395C109.764 47.1673 108.812 47.3952 107.917 47.623C107.022 47.8509 106.184 48.0951 105.402 48.3555C104.963 48.502 104.572 48.6077 104.23 48.6729C103.889 48.7217 103.579 48.7461 103.303 48.7461C102.928 48.7461 102.652 48.5833 102.473 48.2578C102.294 47.916 102.204 47.4928 102.204 46.9883C102.204 46.8092 102.22 46.6058 102.253 46.3779C102.285 46.1338 102.351 45.8978 102.448 45.6699C102.53 45.4258 102.66 45.2061 102.839 45.0107C103.002 44.7992 103.229 44.6283 103.522 44.498C104.206 44.2214 105.118 43.9365 106.257 43.6436C107.396 43.3343 108.682 43.0495 110.114 42.7891C110.44 42.7077 110.692 42.5775 110.871 42.3984C111.066 42.2031 111.164 41.9183 111.164 41.5439C111.164 41.4626 111.164 41.3812 111.164 41.2998C111.164 41.2021 111.148 41.1045 111.115 41.0068C110.855 39.5094 110.603 38.1504 110.358 36.9297C110.131 35.6927 109.927 34.6348 109.748 33.7559C109.585 32.877 109.455 32.1852 109.357 31.6807C109.26 31.1761 109.211 30.8831 109.211 30.8018ZM144.099 48.9902C144.099 49.9668 144.335 50.8783 144.807 51.7246C145.295 52.5547 145.93 53.2871 146.711 53.9219C147.492 54.5404 148.387 55.0286 149.396 55.3867C150.406 55.7285 151.439 55.8994 152.497 55.8994C152.823 55.8994 153.156 55.875 153.498 55.8262C153.84 55.7611 154.149 55.6553 154.426 55.5088C154.702 55.3623 154.93 55.1751 155.109 54.9473C155.288 54.7031 155.378 54.402 155.378 54.0439C155.378 53.3604 155.134 52.6849 154.646 52.0176C154.174 51.3503 153.547 50.6911 152.766 50.04C151.984 49.3727 151.089 48.7135 150.08 48.0625C149.071 47.3952 148.046 46.736 147.004 46.085C145.962 45.4339 144.937 44.7829 143.928 44.1318C142.919 43.4645 142.023 42.8053 141.242 42.1543C140.461 41.487 139.826 40.8197 139.338 40.1523C138.866 39.4688 138.63 38.7852 138.63 38.1016C138.63 37.4505 138.793 36.8483 139.118 36.2949C139.46 35.7253 139.908 35.2126 140.461 34.7568C141.014 34.3011 141.657 33.8942 142.39 33.5361C143.122 33.1781 143.887 32.877 144.685 32.6328C145.482 32.3887 146.28 32.2096 147.077 32.0957C147.891 31.9655 148.664 31.9004 149.396 31.9004C149.934 31.9004 150.52 31.9167 151.154 31.9492C151.805 31.9655 152.408 32.0387 152.961 32.1689C153.531 32.2829 154.003 32.4619 154.377 32.7061C154.751 32.9502 154.938 33.3001 154.938 33.7559C154.938 33.9023 154.914 34.0895 154.865 34.3174C154.816 34.529 154.678 34.887 154.45 35.3916C154.222 35.8636 153.954 36.2217 153.645 36.4658C153.352 36.6937 152.969 36.8076 152.497 36.8076C151.83 36.8076 151.122 36.7344 150.373 36.5879C149.641 36.4251 148.9 36.3438 148.151 36.3438C147.744 36.3438 147.329 36.3682 146.906 36.417C146.499 36.4495 146.125 36.5228 145.783 36.6367C145.441 36.7344 145.165 36.889 144.953 37.1006C144.742 37.2959 144.636 37.5482 144.636 37.8574C144.636 38.1667 144.855 38.5166 145.295 38.9072C145.751 39.2979 146.345 39.7292 147.077 40.2012C147.826 40.6732 148.672 41.194 149.616 41.7637C150.56 42.3171 151.521 42.9193 152.497 43.5703C153.49 44.2051 154.458 44.8887 155.402 45.6211C156.346 46.3372 157.185 47.1022 157.917 47.916C158.666 48.7135 159.26 49.5599 159.699 50.4551C160.155 51.3503 160.383 52.278 160.383 53.2383C160.383 54.4102 160.114 55.4437 159.577 56.3389C159.04 57.234 158.348 57.9827 157.502 58.585C156.656 59.1872 155.72 59.6348 154.694 59.9277C153.669 60.237 152.668 60.3916 151.691 60.3916C150.699 60.3916 149.689 60.2695 148.664 60.0254C147.655 59.7975 146.678 59.4639 145.734 59.0244C144.79 58.6012 143.903 58.0885 143.073 57.4863C142.259 56.8678 141.551 56.1842 140.949 55.4355C140.347 54.6706 139.867 53.8486 139.509 52.9697C139.167 52.0908 138.996 51.1712 138.996 50.2109C138.996 49.804 139.021 49.3971 139.069 48.9902C139.134 48.5671 139.24 48.2008 139.387 47.8916C139.533 47.5661 139.737 47.3057 139.997 47.1104C140.257 46.8988 140.591 46.793 140.998 46.793C141.128 46.793 141.275 46.8092 141.438 46.8418C141.6 46.8581 141.885 46.9313 142.292 47.0615C142.764 47.208 143.179 47.444 143.537 47.7695C143.911 48.0788 144.099 48.4857 144.099 48.9902ZM183.186 53.6533C183.658 53.2464 184.121 53.043 184.577 53.043C184.838 53.043 185.074 53.1081 185.285 53.2383C185.497 53.3685 185.733 53.5719 185.993 53.8486C186.237 54.223 186.408 54.5322 186.506 54.7764C186.62 55.0042 186.677 55.2321 186.677 55.46C186.677 55.9482 186.433 56.4121 185.944 56.8516C185.163 57.5026 184.317 58.0885 183.405 58.6094C182.494 59.1139 181.542 59.5452 180.549 59.9033C179.556 60.2614 178.531 60.5299 177.473 60.709C176.415 60.9043 175.365 61.002 174.323 61.002C173.005 61.002 171.768 60.8311 170.612 60.4893C169.457 60.1637 168.423 59.6917 167.512 59.0732C166.617 58.4548 165.86 57.7142 165.241 56.8516C164.623 55.9727 164.183 54.988 163.923 53.8975C163.776 53.4417 163.638 53.1488 163.508 53.0186C163.394 52.8721 163.199 52.7988 162.922 52.7988C162.32 52.7988 161.856 52.6523 161.53 52.3594C161.205 52.0664 161.042 51.6432 161.042 51.0898C161.042 50.862 161.058 50.7155 161.091 50.6504L161.14 50.1621C161.221 49.5762 161.376 49.153 161.604 48.8926C161.848 48.6322 162.222 48.502 162.727 48.502H163.093C163.776 48.502 164.257 48.1846 164.533 47.5498C165.038 46.4268 165.681 45.4014 166.462 44.4736C167.243 43.5459 168.122 42.7565 169.099 42.1055C170.075 41.4382 171.117 40.9255 172.224 40.5674C173.347 40.193 174.486 40.0059 175.642 40.0059C176.846 40.0059 177.969 40.1849 179.011 40.543C180.069 40.8848 180.988 41.3649 181.77 41.9834C182.551 42.6019 183.161 43.3262 183.601 44.1562C184.056 44.9863 184.284 45.8815 184.284 46.8418C184.284 47.5091 184.154 48.1195 183.894 48.6729C183.633 49.2262 183.259 49.7145 182.771 50.1377C182.282 50.5446 181.688 50.8783 180.988 51.1387C180.305 51.3991 179.523 51.57 178.645 51.6514L170.173 52.5059C169.847 52.5059 169.579 52.5872 169.367 52.75C169.172 52.9128 169.074 53.1325 169.074 53.4092C169.074 53.8324 169.229 54.2393 169.538 54.6299C169.864 55.0205 170.287 55.3704 170.808 55.6797C171.345 55.9727 171.955 56.2087 172.639 56.3877C173.339 56.5667 174.055 56.6562 174.787 56.6562C175.487 56.6562 176.203 56.5911 176.936 56.4609C177.684 56.3145 178.417 56.111 179.133 55.8506C179.865 55.5902 180.573 55.2809 181.257 54.9229C181.94 54.5485 182.583 54.1253 183.186 53.6533ZM177.741 47.3545C177.985 47.3057 178.197 47.1917 178.376 47.0127C178.555 46.8174 178.645 46.5814 178.645 46.3047C178.645 46.0605 178.555 45.8327 178.376 45.6211C178.197 45.4095 177.953 45.2223 177.644 45.0596C177.334 44.8805 176.976 44.7422 176.569 44.6445C176.162 44.5469 175.731 44.498 175.275 44.498C174.608 44.498 173.924 44.5957 173.225 44.791C172.525 44.9863 171.89 45.2467 171.32 45.5723C170.751 45.8815 170.287 46.2314 169.929 46.6221C169.571 46.9964 169.392 47.3708 169.392 47.7451C169.392 48.1195 169.619 48.3066 170.075 48.3066C170.352 48.3066 170.799 48.2741 171.418 48.209C172.036 48.1439 172.72 48.0706 173.469 47.9893C174.217 47.8916 174.974 47.7858 175.739 47.6719C176.504 47.5579 177.172 47.4521 177.741 47.3545ZM201.472 40.7383C200.869 40.7383 200.34 40.901 199.885 41.2266C199.429 41.5358 199.038 41.9753 198.713 42.5449C198.387 43.0983 198.119 43.7575 197.907 44.5225C197.696 45.2712 197.525 46.0931 197.395 46.9883C197.264 47.8835 197.175 48.8193 197.126 49.7959C197.077 50.7725 197.053 51.7572 197.053 52.75C197.053 54.0521 197.102 55.3379 197.199 56.6074C197.313 57.8607 197.37 59.0244 197.37 60.0986C197.37 60.7985 197.11 61.3438 196.589 61.7344C196.068 62.1413 195.327 62.3447 194.367 62.3447C194.188 62.3447 193.985 62.3285 193.757 62.2959C193.529 62.2633 193.309 62.1982 193.098 62.1006C192.902 62.0029 192.723 61.8646 192.561 61.6855C192.414 61.5228 192.333 61.2949 192.316 61.002C192.17 59.5697 191.958 58.1048 191.682 56.6074C191.405 55.11 191.055 53.6208 190.632 52.1396C190.225 50.6423 189.729 49.1611 189.143 47.6963C188.573 46.2314 187.914 44.7992 187.165 43.3994C187.035 43.1553 186.921 42.9274 186.823 42.7158C186.742 42.5042 186.701 42.3008 186.701 42.1055C186.701 41.8613 186.807 41.6009 187.019 41.3242C187.246 41.0312 187.523 40.7627 187.849 40.5186C188.19 40.2744 188.557 40.0791 188.947 39.9326C189.354 39.7699 189.745 39.6885 190.119 39.6885C190.738 39.6885 191.283 40.1198 191.755 40.9824C192.227 41.8288 192.666 43.1878 193.073 45.0596C193.155 45.3851 193.22 45.613 193.269 45.7432C193.317 45.8734 193.382 45.9385 193.464 45.9385C193.643 45.9385 193.757 45.6618 193.806 45.1084C194.001 43.5622 194.335 42.2357 194.807 41.1289C195.279 40.0059 195.865 39.0863 196.564 38.3701C197.281 37.6377 198.094 37.1006 199.006 36.7588C199.934 36.417 200.951 36.2461 202.058 36.2461C202.692 36.2461 203.335 36.3031 203.986 36.417C204.637 36.5309 205.223 36.7018 205.744 36.9297C206.265 37.1576 206.688 37.4342 207.014 37.7598C207.339 38.0853 207.502 38.4515 207.502 38.8584C207.502 39.1514 207.437 39.5013 207.307 39.9082C207.193 40.2988 207.038 40.6813 206.843 41.0557C206.647 41.4137 206.42 41.723 206.159 41.9834C205.915 42.2275 205.663 42.3496 205.402 42.3496C205.109 42.3496 204.825 42.2682 204.548 42.1055C204.271 41.9264 203.97 41.7393 203.645 41.5439C203.335 41.3486 203.002 41.1696 202.644 41.0068C202.302 40.8278 201.911 40.7383 201.472 40.7383ZM219.025 40.1523C219.074 39.6966 219.131 39.3223 219.196 39.0293C219.278 38.7201 219.392 38.4759 219.538 38.2969C219.701 38.1016 219.904 37.9632 220.148 37.8818C220.393 37.8005 220.702 37.7598 221.076 37.7598C222.264 37.7598 223.135 37.9388 223.688 38.2969C224.258 38.6387 224.543 39.1921 224.543 39.957C224.543 40.1035 224.51 40.429 224.445 40.9336C224.396 41.4219 224.323 42.0322 224.226 42.7646C224.128 43.4808 224.014 44.2783 223.884 45.1572C223.77 46.0199 223.656 46.8988 223.542 47.7939C223.249 49.8773 222.915 52.2129 222.541 54.8008C222.313 56.3307 221.857 57.4294 221.174 58.0967C220.507 58.764 219.514 59.0977 218.195 59.0977C217.202 59.0977 216.177 58.8454 215.119 58.3408C214.061 57.8363 213.036 57.1527 212.043 56.29C211.05 55.4274 210.106 54.4264 209.211 53.2871C208.332 52.1315 207.559 50.9108 206.892 49.625C206.224 48.3229 205.695 46.9964 205.305 45.6455C204.93 44.2946 204.743 42.9762 204.743 41.6904C204.743 40.2419 204.947 39.1595 205.354 38.4434C205.777 37.7109 206.501 37.3447 207.526 37.3447C208.243 37.3447 208.837 37.3936 209.309 37.4912C209.781 37.5726 210.155 37.7272 210.432 37.9551C210.725 38.1667 210.928 38.4515 211.042 38.8096C211.172 39.1676 211.237 39.6152 211.237 40.1523C211.237 40.5104 211.221 40.8685 211.188 41.2266C211.156 41.5846 211.14 41.9427 211.14 42.3008C211.14 43.1309 211.221 44.0016 211.384 44.9131C211.563 45.8083 211.799 46.6872 212.092 47.5498C212.385 48.4124 212.727 49.2344 213.117 50.0156C213.508 50.7806 213.923 51.4561 214.362 52.042C214.802 52.6279 215.241 53.0918 215.681 53.4336C216.136 53.7754 216.576 53.9463 216.999 53.9463C217.292 53.9463 217.512 53.8486 217.658 53.6533C217.821 53.458 217.927 53.1243 217.976 52.6523L219.025 40.1523ZM231.696 34.0977C231.224 34.0977 230.777 34.0326 230.354 33.9023C229.947 33.7559 229.589 33.5605 229.279 33.3164C228.986 33.056 228.75 32.7549 228.571 32.4131C228.392 32.0713 228.303 31.6969 228.303 31.29C228.303 30.6064 228.571 30.0531 229.108 29.6299C229.662 29.2067 230.394 28.9951 231.306 28.9951C231.729 28.9951 232.136 29.0765 232.526 29.2393C232.917 29.3857 233.259 29.5892 233.552 29.8496C233.861 30.11 234.105 30.4193 234.284 30.7773C234.463 31.1191 234.553 31.4772 234.553 31.8516C234.553 32.5514 234.292 33.1048 233.771 33.5117C233.267 33.9023 232.575 34.0977 231.696 34.0977ZM228.352 41.5439C228.352 40.9743 228.596 40.5104 229.084 40.1523C229.589 39.778 230.248 39.5908 231.062 39.5908C232.526 39.5908 233.308 40.0954 233.405 41.1045C233.47 41.8044 233.535 42.5938 233.601 43.4727C233.682 44.3516 233.755 45.2874 233.82 46.2803C233.902 47.2568 233.967 48.2741 234.016 49.332C234.081 50.3737 234.138 51.4072 234.187 52.4326C234.235 53.4417 234.276 54.4183 234.309 55.3623C234.341 56.3063 234.357 57.1689 234.357 57.9502C234.357 58.764 234.064 59.3743 233.479 59.7812C232.909 60.1882 232.071 60.3916 230.964 60.3916C230.459 60.3916 230.061 60.2695 229.768 60.0254C229.491 59.7975 229.353 59.4557 229.353 59C229.353 56.7539 229.296 54.6543 229.182 52.7012C229.084 50.7318 228.97 48.9821 228.84 47.4521C228.726 45.9222 228.612 44.6527 228.498 43.6436C228.4 42.6182 228.352 41.9183 228.352 41.5439ZM247.492 38.8584C248.339 38.8584 249.16 38.9805 249.958 39.2246C250.756 39.4688 251.455 39.8024 252.058 40.2256C252.676 40.6325 253.173 41.1045 253.547 41.6416C253.921 42.1624 254.108 42.6995 254.108 43.2529C254.108 43.611 254.035 43.9609 253.889 44.3027C253.742 44.6283 253.547 44.9212 253.303 45.1816C253.059 45.4258 252.782 45.6292 252.473 45.792C252.163 45.9385 251.838 46.0117 251.496 46.0117C251.122 46.0117 250.78 45.8734 250.471 45.5967C250.161 45.3037 249.828 44.9863 249.47 44.6445C249.128 44.2865 248.737 43.9691 248.298 43.6924C247.875 43.3994 247.362 43.2529 246.76 43.2529C246.174 43.2529 245.645 43.3913 245.173 43.668C244.701 43.9447 244.302 44.3353 243.977 44.8398C243.667 45.3281 243.423 45.9141 243.244 46.5977C243.081 47.265 243 47.9974 243 48.7949C243 51.0736 243.431 52.8151 244.294 54.0195C245.157 55.2077 246.394 55.8018 248.005 55.8018C248.77 55.8018 249.421 55.6797 249.958 55.4355C250.511 55.1914 250.992 54.9229 251.398 54.6299C251.822 54.3369 252.204 54.0684 252.546 53.8242C252.888 53.5801 253.238 53.458 253.596 53.458C253.791 53.458 253.986 53.5231 254.182 53.6533C254.377 53.7673 254.548 53.9219 254.694 54.1172C254.857 54.2962 254.987 54.4997 255.085 54.7275C255.199 54.9554 255.256 55.1833 255.256 55.4111C255.256 55.9482 254.987 56.5016 254.45 57.0713C253.929 57.641 253.254 58.1618 252.424 58.6338C251.594 59.0895 250.666 59.4639 249.641 59.7568C248.632 60.0498 247.647 60.1963 246.687 60.1963C245.401 60.1963 244.221 59.944 243.146 59.4395C242.072 58.9512 241.145 58.2676 240.363 57.3887C239.582 56.4935 238.972 55.4274 238.532 54.1904C238.109 52.9535 237.897 51.5863 237.897 50.0889C237.897 48.4613 238.133 46.9639 238.605 45.5967C239.094 44.2295 239.761 43.0495 240.607 42.0566C241.47 41.0475 242.487 40.2663 243.659 39.7129C244.831 39.1432 246.109 38.8584 247.492 38.8584ZM276.643 53.6533C277.115 53.2464 277.578 53.043 278.034 53.043C278.295 53.043 278.531 53.1081 278.742 53.2383C278.954 53.3685 279.19 53.5719 279.45 53.8486C279.694 54.223 279.865 54.5322 279.963 54.7764C280.077 55.0042 280.134 55.2321 280.134 55.46C280.134 55.9482 279.89 56.4121 279.401 56.8516C278.62 57.5026 277.774 58.0885 276.862 58.6094C275.951 59.1139 274.999 59.5452 274.006 59.9033C273.013 60.2614 271.988 60.5299 270.93 60.709C269.872 60.9043 268.822 61.002 267.78 61.002C266.462 61.002 265.225 60.8311 264.069 60.4893C262.914 60.1637 261.88 59.6917 260.969 59.0732C260.074 58.4548 259.317 57.7142 258.698 56.8516C258.08 55.9727 257.64 54.988 257.38 53.8975C257.233 53.4417 257.095 53.1488 256.965 53.0186C256.851 52.8721 256.656 52.7988 256.379 52.7988C255.777 52.7988 255.313 52.6523 254.987 52.3594C254.662 52.0664 254.499 51.6432 254.499 51.0898C254.499 50.862 254.515 50.7155 254.548 50.6504L254.597 50.1621C254.678 49.5762 254.833 49.153 255.061 48.8926C255.305 48.6322 255.679 48.502 256.184 48.502H256.55C257.233 48.502 257.714 48.1846 257.99 47.5498C258.495 46.4268 259.138 45.4014 259.919 44.4736C260.7 43.5459 261.579 42.7565 262.556 42.1055C263.532 41.4382 264.574 40.9255 265.681 40.5674C266.804 40.193 267.943 40.0059 269.099 40.0059C270.303 40.0059 271.426 40.1849 272.468 40.543C273.526 40.8848 274.445 41.3649 275.227 41.9834C276.008 42.6019 276.618 43.3262 277.058 44.1562C277.513 44.9863 277.741 45.8815 277.741 46.8418C277.741 47.5091 277.611 48.1195 277.351 48.6729C277.09 49.2262 276.716 49.7145 276.228 50.1377C275.739 50.5446 275.145 50.8783 274.445 51.1387C273.762 51.3991 272.98 51.57 272.102 51.6514L263.63 52.5059C263.304 52.5059 263.036 52.5872 262.824 52.75C262.629 52.9128 262.531 53.1325 262.531 53.4092C262.531 53.8324 262.686 54.2393 262.995 54.6299C263.321 55.0205 263.744 55.3704 264.265 55.6797C264.802 55.9727 265.412 56.2087 266.096 56.3877C266.796 56.5667 267.512 56.6562 268.244 56.6562C268.944 56.6562 269.66 56.5911 270.393 56.4609C271.141 56.3145 271.874 56.111 272.59 55.8506C273.322 55.5902 274.03 55.2809 274.714 54.9229C275.397 54.5485 276.04 54.1253 276.643 53.6533ZM271.198 47.3545C271.442 47.3057 271.654 47.1917 271.833 47.0127C272.012 46.8174 272.102 46.5814 272.102 46.3047C272.102 46.0605 272.012 45.8327 271.833 45.6211C271.654 45.4095 271.41 45.2223 271.101 45.0596C270.791 44.8805 270.433 44.7422 270.026 44.6445C269.619 44.5469 269.188 44.498 268.732 44.498C268.065 44.498 267.382 44.5957 266.682 44.791C265.982 44.9863 265.347 45.2467 264.777 45.5723C264.208 45.8815 263.744 46.2314 263.386 46.6221C263.028 46.9964 262.849 47.3708 262.849 47.7451C262.849 48.1195 263.076 48.3066 263.532 48.3066C263.809 48.3066 264.257 48.2741 264.875 48.209C265.493 48.1439 266.177 48.0706 266.926 47.9893C267.674 47.8916 268.431 47.7858 269.196 47.6719C269.961 47.5579 270.629 47.4521 271.198 47.3545Z" fill="#0C0C0C"/>
</g>
<defs>
<filter id="filter0_d_1_4" x="19" y="0" width="248" height="95" filterUnits="userSpaceOnUse" color-interpolation-filters="sRGB">
<feFlood flood-opacity="0" result="BackgroundImageFix"/>
<feColorMatrix in="SourceAlpha" type="matrix" values="0 0 0 0 0 0 0 0 0 0 0 0 0 0 0 0 0 0 127 0" result="hardAlpha"/>
<feOffset dy="4"/>
<feGaussianBlur stdDeviation="2"/>
<feComposite in2="hardAlpha" operator="out"/>
<feColorMatrix type="matrix" values="0 0 0 0 0 0 0 0 0 0 0 0 0 0 0 0 0 0 0.25 0"/>
<feBlend mode="normal" in2="BackgroundImageFix" result="effect1_dropShadow_1_4"/>
<feBlend mode="normal" in="SourceGraphic" in2="effect1_dropShadow_1_4" result="shape"/>
</filter>
<filter id="filter1_d_1_4" x="3.2334" y="28.458" width="280.9" height="41.8867" filterUnits="userSpaceOnUse" color-interpolation-filters="sRGB">
<feFlood flood-opacity="0" result="BackgroundImageFix"/>
<feColorMatrix in="SourceAlpha" type="matrix" values="0 0 0 0 0 0 0 0 0 0 0 0 0 0 0 0 0 0 127 0" result="hardAlpha"/>
<feOffset dy="4"/>
<feGaussianBlur stdDeviation="2"/>
<feComposite in2="hardAlpha" operator="out"/>
<feColorMatrix type="matrix" values="0 0 0 0 0 0 0 0 0 0 0 0 0 0 0 0 0 0 0.25 0"/>
<feBlend mode="normal" in2="BackgroundImageFix" result="effect1_dropShadow_1_4"/>
<feBlend mode="normal" in="SourceGraphic" in2="effect1_dropShadow_1_4" result="shape"/>
</filter>
</defs>
</svg>
